<svg width="62" height="58" viewBox="0 0 62 58" fill="none" xmlns="http://www.w3.org/2000/svg">
<path d="M31 13.1667V6.83333C31 3.35 28.225 0.5 24.8334 0.5H6.33335C2.94169 0.5 0.166687 3.35 0.166687 6.83333V51.1667C0.166687 54.65 2.94169 57.5 6.33335 57.5H55.6667C59.0584 57.5 61.8334 54.65 61.8334 51.1667V19.5C61.8334 16.0167 59.0584 13.1667 55.6667 13.1667H31ZM12.5 51.1667H6.33335V44.8333H12.5V51.1667ZM12.5 38.5H6.33335V32.1667H12.5V38.5ZM12.5 25.8333H6.33335V19.5H12.5V25.8333ZM12.5 13.1667H6.33335V6.83333H12.5V13.1667ZM24.8334 51.1667H18.6667V44.8333H24.8334V51.1667ZM24.8334 38.5H18.6667V32.1667H24.8334V38.5ZM24.8334 25.8333H18.6667V19.5H24.8334V25.8333ZM24.8334 13.1667H18.6667V6.83333H24.8334V13.1667ZM52.5834 51.1667H31V44.8333H37.1667V38.5H31V32.1667H37.1667V25.8333H31V19.5H52.5834C54.2792 19.5 55.6667 20.925 55.6667 22.6667V48C55.6667 49.7417 54.2792 51.1667 52.5834 51.1667ZM49.5 25.8333H43.3334V32.1667H49.5V25.8333ZM49.5 38.5H43.3334V44.8333H49.5V38.5Z" fill="black"/>
</svg>
